<?xml version="1.0" encoding="UTF-8"?>
<svg width="512px" height="512px" viewBox="0 0 512 512" version="1.1" xmlns="http://www.w3.org/2000/svg" xmlns:xlink="http://www.w3.org/1999/xlink">
    <!-- Generator: Sketch 52.5 (67469) - http://www.bohemiancoding.com/sketch -->
    <title>i-wallet</title>
    <desc>Created with Sketch.</desc>
    <g id="Page-1" stroke="none" stroke-width="1" fill="none" fill-rule="evenodd">
        <g id="i-wallet">
            <path d="M211.5,494.62 C209.64,492.759 207.06,491.69 204.43,491.69 C201.79,491.69 199.22,492.759 197.36,494.62 C195.5,496.481 194.43,499.06 194.43,501.69 C194.43,504.32 195.5,506.9 197.36,508.759 C199.22,510.619 201.8,511.69 204.43,511.69 C207.06,511.69 209.64,510.62 211.5,508.759 C213.36,506.9 214.43,504.32 214.43,501.69 C214.43,499.06 213.36,496.48 211.5,494.62 Z" id="Shape" fill="#343434"></path>
            <path d="M58,313.165 C52.477,313.165 48,317.642 48,323.165 L48,415.998 C48,421.52 52.477,425.998 58,425.998 C63.523,425.998 68,421.52 68,415.998 L68,323.165 C68,317.643 63.523,313.165 58,313.165 Z" id="Shape" fill="#343434"></path>
            <path d="M65.07,274.43 C63.21,272.57 60.63,271.499 58,271.499 C55.37,271.499 52.79,272.569 50.93,274.43 C49.07,276.289 48,278.86 48,281.499 C48,284.129 49.07,286.709 50.93,288.569 C52.79,290.429 55.37,291.499 58,291.499 C60.63,291.499 63.21,290.43 65.07,288.569 C66.93,286.708 68,284.129 68,281.499 C68,278.869 66.93,276.29 65.07,274.43 Z" id="Shape" fill="#FDFDFF"></path>
            <path d="M512,270.69 C512,246.747 494.733,226.773 472,222.533 L472,157.69 C472,130.12 449.57,107.69 422,107.69 L369.744,107.69 L265.29,3.236 C261.385,-0.668 255.053,-0.668 251.147,3.236 L227.902,26.481 L204.657,3.236 C200.752,-0.668 194.42,-0.668 190.515,3.236 L85.44,108.312 C84.366,107.918 83.211,107.692 82,107.692 L50,107.692 C22.43,107.692 0,130.122 0,157.692 C0,158.421 0.024,159.145 0.055,159.866 C0.019,160.208 0,160.557 0,160.911 L0,461.691 C0,489.261 22.43,511.691 50,511.691 L162.333,511.691 C167.856,511.691 172.333,507.213 172.333,501.691 C172.333,496.169 167.856,491.691 162.333,491.691 L50,491.691 C33.458,491.691 20,478.233 20,461.691 L20,197.663 C28.363,203.955 38.753,207.69 50,207.69 L259.326,207.893 L372.93,207.893 C373.256,207.893 373.582,207.876 373.906,207.845 C373.925,207.843 373.944,207.84 373.963,207.838 C389.119,209.331 401,222.148 401,237.691 L401,299.691 L280,299.691 C252.43,299.691 230,322.121 230,349.691 C230,377.261 252.43,399.691 280,399.691 L401,399.691 L401,461.691 C401,478.233 387.542,491.691 371,491.691 L246.333,491.691 C240.81,491.691 236.333,496.169 236.333,501.691 C236.333,507.213 240.81,511.691 246.333,511.691 L371,511.691 C398.57,511.691 421,489.261 421,461.691 L421,457.691 L422,457.691 C449.57,457.691 472,435.261 472,407.691 L472,398.685 C494.795,394.039 512,373.838 512,349.691 L512,272.691 C512,272.482 511.994,272.274 511.981,272.068 C511.994,271.61 512,271.15 512,270.69 Z M238.81,43.861 L258.219,24.451 L279.648,45.88 C266.865,53.579 250.806,53.78 237.848,46.491 C238.297,45.655 238.615,44.768 238.81,43.861 Z M20,157.69 C20,141.148 33.458,127.69 50,127.69 L66.061,127.69 L22.998,170.753 C21.079,166.802 20,162.37 20,157.69 Z M50,187.69 C45.429,187.69 41.095,186.658 37.214,184.822 L197.586,24.45 L213.76,40.624 L66.693,187.69 L50,187.69 Z M144.379,187.69 C145.739,186.015 147.184,184.403 148.723,182.865 C160.532,171.055 176.234,164.552 192.934,164.552 C209.634,164.552 225.336,171.056 237.145,182.865 C238.684,184.403 240.129,186.016 241.489,187.69 L144.379,187.69 Z M353.714,187.69 L265.439,187.69 C261.663,180.728 256.929,174.364 251.287,168.722 C235.7,153.135 214.976,144.551 192.933,144.551 C170.89,144.551 150.166,153.135 134.579,168.722 C128.936,174.364 124.202,180.728 120.427,187.69 L94.977,187.69 L222.365,60.304 C233.038,67.966 245.625,71.81 258.219,71.81 C270.813,71.81 283.4,67.967 294.073,60.304 L359.371,125.602 C346.246,143.885 344.357,167.791 353.714,187.69 Z M373.796,182.885 C365.886,169.752 365.886,153.159 373.796,140.027 L395.225,161.456 L373.796,182.885 Z M392.437,192.528 L416.438,168.527 C420.343,164.622 420.343,158.29 416.438,154.384 L389.744,127.69 L422,127.69 C438.542,127.69 452,141.148 452,157.69 L452,299.69 L421,299.69 L421,237.69 C421,217.788 409.31,200.57 392.437,192.528 Z M452,407.69 C452,424.232 438.542,437.69 422,437.69 L421,437.69 L421,399.69 L452,399.69 L452,407.69 Z M492,349.69 C492,366.232 478.542,379.69 462,379.69 L280,379.69 C263.458,379.69 250,366.232 250,349.69 C250,333.148 263.458,319.69 280,319.69 L463,319.69 C473.843,319.69 483.875,316.15 492,310.165 L492,349.69 Z M472,298.253 L472,243.127 C483.597,246.923 492,257.841 492,270.69 C492,283.539 483.597,294.457 472,298.253 Z" id="Shape" fill="#343434" fill-rule="nonzero"></path>
            <path d="M289.07,342.62 C287.21,340.76 284.63,339.69 282,339.69 C279.37,339.69 276.79,340.759 274.93,342.62 C273.07,344.48 272,347.06 272,349.69 C272,352.32 273.07,354.9 274.93,356.759 C276.79,358.619 279.37,359.69 282,359.69 C284.63,359.69 287.21,358.62 289.07,356.759 C290.93,354.9 292,352.32 292,349.69 C292,347.06 290.93,344.48 289.07,342.62 Z" id="Shape" fill="#343434"></path>
            <path d="M293.576,126.098 C289.67,122.195 283.339,122.194 279.434,126.098 L262.054,143.478 C258.149,147.383 258.148,153.715 262.054,157.621 C264.006,159.573 266.565,160.55 269.125,160.55 C271.684,160.55 274.244,159.573 276.196,157.621 L293.576,140.241 C297.481,136.336 297.482,130.005 293.576,126.098 Z" id="Shape" fill="#343434"></path>
        </g>
    </g>
</svg>